<svg width="303" height="282" viewBox="0 0 303 282" fill="none" xmlns="http://www.w3.org/2000/svg">
<line y1="-1.5" x2="57.1469" y2="-1.5" transform="matrix(-0.877062 0.480377 -0.508816 -0.860875 152.933 7.62939e-06)" stroke="#5053A4" stroke-width="3"/>
<line y1="-1.5" x2="58.6686" y2="-1.5" transform="matrix(-0.883772 0.467917 -0.496083 -0.868275 203.054 83.6039)" stroke="#5053A4" stroke-width="3"/>
<line y1="-1.5" x2="57.1469" y2="-1.5" transform="matrix(-0.877062 -0.480377 0.508816 -0.860875 152.933 111.056)" stroke="#5053A4" stroke-width="3"/>
<line y1="-1.5" x2="58.2331" y2="-1.5" transform="matrix(0.00741984 -0.999972 0.999976 0.00687586 103.675 85.6836)" stroke="#5053A4" stroke-width="3"/>
<line y1="-1.5" x2="58.2375" y2="-1.5" transform="matrix(-0.0148385 -0.99989 0.999905 -0.0137508 203.917 85.6836)" stroke="#5053A4" stroke-width="3"/>
<line y1="-1.5" x2="57.1469" y2="-1.5" transform="matrix(-0.877062 -0.480377 0.508816 -0.860875 203.054 27.452)" stroke="#5053A4" stroke-width="3"/>
<line y1="-1.5" x2="57.1469" y2="-1.5" transform="matrix(-0.877062 0.480377 -0.508816 -0.860875 101.947 83.6039)" stroke="#5053A4" stroke-width="3"/>
<line y1="-1.5" x2="58.6686" y2="-1.5" transform="matrix(-0.883772 0.467917 -0.496083 -0.868275 152.069 167.208)" stroke="#5053A4" stroke-width="3"/>
<line y1="-1.5" x2="57.1469" y2="-1.5" transform="matrix(-0.877062 -0.480377 0.508816 -0.860875 101.947 194.66)" stroke="#5053A4" stroke-width="3"/>
<line y1="-1.5" x2="58.2331" y2="-1.5" transform="matrix(0.00741984 -0.999972 0.999976 0.00687586 52.6898 169.288)" stroke="#5053A4" stroke-width="3"/>
<line y1="-1.5" x2="58.2375" y2="-1.5" transform="matrix(-0.0148385 -0.99989 0.999905 -0.0137508 152.933 169.288)" stroke="#5053A4" stroke-width="3"/>
<line y1="-1.5" x2="57.1469" y2="-1.5" transform="matrix(-0.877062 -0.480377 0.508816 -0.860875 152.069 111.056)" stroke="#5053A4" stroke-width="3"/>
<line y1="-1.5" x2="57.1469" y2="-1.5" transform="matrix(-0.877062 0.480377 -0.508816 -0.860875 201.326 83.6039)" stroke="#5053A4" stroke-width="3"/>
<line y1="-1.5" x2="58.6686" y2="-1.5" transform="matrix(-0.883772 0.467917 -0.496083 -0.868275 251.447 167.208)" stroke="#5053A4" stroke-width="3"/>
<line y1="-1.5" x2="57.1469" y2="-1.5" transform="matrix(-0.877062 -0.480377 0.508816 -0.860875 201.326 194.66)" stroke="#5053A4" stroke-width="3"/>
<line y1="-1.5" x2="58.2331" y2="-1.5" transform="matrix(0.00741984 -0.999972 0.999976 0.00687586 152.068 169.288)" stroke="#5053A4" stroke-width="3"/>
<line y1="-1.5" x2="58.2375" y2="-1.5" transform="matrix(-0.0148385 -0.99989 0.999905 -0.0137508 252.311 169.288)" stroke="#5053A4" stroke-width="3"/>
<line y1="-1.5" x2="57.1469" y2="-1.5" transform="matrix(-0.877062 -0.480377 0.508816 -0.860875 251.447 111.056)" stroke="#5053A4" stroke-width="3"/>
<line y1="-1.5" x2="57.1469" y2="-1.5" transform="matrix(-0.877062 0.480377 -0.508816 -0.860875 53.1216 168.04)" stroke="#5053A4" stroke-width="3"/>
<line y1="-1.5" x2="58.6686" y2="-1.5" transform="matrix(-0.883772 0.467917 -0.496083 -0.868275 103.243 251.644)" stroke="#5053A4" stroke-width="3"/>
<line y1="-1.5" x2="57.1469" y2="-1.5" transform="matrix(-0.877062 -0.480377 0.508816 -0.860875 53.1216 279.096)" stroke="#5053A4" stroke-width="3"/>
<line y1="-1.5" x2="58.2331" y2="-1.5" transform="matrix(0.00741984 -0.999972 0.999976 0.00687586 3.86426 253.723)" stroke="#5053A4" stroke-width="3"/>
<line y1="-1.5" x2="58.2375" y2="-1.5" transform="matrix(-0.0148385 -0.99989 0.999905 -0.0137508 104.106 253.723)" stroke="#5053A4" stroke-width="3"/>
<line y1="-1.5" x2="57.1469" y2="-1.5" transform="matrix(-0.877062 -0.480377 0.508816 -0.860875 103.243 195.492)" stroke="#5053A4" stroke-width="3"/>
<line y1="-1.5" x2="58.6686" y2="-1.5" transform="matrix(-0.883772 0.467917 -0.496083 -0.868275 202.621 251.644)" stroke="#5053A4" stroke-width="3"/>
<line y1="-1.5" x2="57.1469" y2="-1.5" transform="matrix(-0.877062 -0.480377 0.508816 -0.860875 152.5 279.096)" stroke="#5053A4" stroke-width="3"/>
<path d="M102.595 253.099L102.167 253.215" stroke="#5053A4" stroke-width="3"/>
<line y1="-1.5" x2="58.2375" y2="-1.5" transform="matrix(-0.0148385 -0.99989 0.999905 -0.0137508 203.486 253.723)" stroke="#5053A4" stroke-width="3"/>
<line y1="-1.5" x2="57.1469" y2="-1.5" transform="matrix(-0.877062 -0.480377 0.508816 -0.860875 202.621 195.492)" stroke="#5053A4" stroke-width="3"/>
<line y1="-1.5" x2="57.1469" y2="-1.5" transform="matrix(-0.877062 0.480377 -0.508816 -0.860875 251.014 167.208)" stroke="#5053A4" stroke-width="3"/>
<line y1="-1.5" x2="58.6686" y2="-1.5" transform="matrix(-0.883772 0.467917 -0.496083 -0.868275 301.135 250.812)" stroke="#5053A4" stroke-width="3"/>
<line y1="-1.5" x2="54.4759" y2="-1.5" transform="matrix(-0.872475 -0.488659 0.51726 -0.855829 251.014 278.264)" stroke="#5053A4" stroke-width="3"/>
<line y1="-1.5" x2="58.2375" y2="-1.5" transform="matrix(-0.0148385 -0.99989 0.999905 -0.0137508 302 252.891)" stroke="#5053A4" stroke-width="3"/>
<line y1="-1.5" x2="57.1469" y2="-1.5" transform="matrix(-0.877062 -0.480377 0.508816 -0.860875 301.135 194.66)" stroke="#5053A4" stroke-width="3"/>
<path d="M40.159 229.183C42.7515 222.361 49.7368 209.148 52.9054 203.395C55.8579 208.247 62.4112 220.199 65.0037 229.183C68.2443 240.413 60.6828 244.781 52.9054 246.444C45.1279 248.108 36.9184 237.71 40.159 229.183Z" stroke="#5053A4" stroke-width="3"/>
<path d="M45.344 231.263C44.7679 233.897 44.8688 239.665 49.8809 241.661" stroke="#5053A4" stroke-width="3"/>
<ellipse cx="276.723" cy="228.559" rx="4.96893" ry="4.36737" fill="white"/>
<path d="M142.236 44.9439C142.236 40.0519 146.202 36.0862 151.093 36.0862V36.0862C155.985 36.0862 159.951 40.0519 159.951 44.9439V56.8832H142.236V44.9439Z" fill="#5053A4"/>
<path d="M143.736 58.3832H158.451V68.8225C158.451 72.8861 155.157 76.1802 151.093 76.1802C147.03 76.1802 143.736 72.8861 143.736 68.8225V58.3832Z" stroke="#5053A4" stroke-width="3"/>
<path d="M246.046 242.493C245.902 246.167 246.91 254.181 252.095 256.843C258.576 260.17 269.81 257.051 272.835 253.307C275.86 249.564 276.292 245.196 276.724 239.581C277.069 235.089 276.868 231.886 276.724 230.847" stroke="#5053A4" stroke-width="3"/>
<path d="M240.428 207.138C237.475 206.514 231.57 206.098 231.57 209.426C231.57 213.585 233.731 240.205 235.675 241.037C237.619 241.869 253.822 241.661 256.631 239.997C259.44 238.334 261.6 211.713 261.384 209.426C261.211 207.596 255.839 207.138 253.174 207.138" stroke="#5053A4" stroke-width="3"/>
<path d="M133.488 233.758H147.315L151.636 222.944L154.012 243.533L157.037 227.519L158.765 236.67L161.141 232.302H174.725M174.725 232.302C172.972 235.965 170.771 238.838 169.999 239.581C168.443 241.079 157.829 249.495 152.716 253.515C147.387 249.217 136.642 240.413 136.297 239.581C135.865 238.541 122.038 225.231 132.408 214.833C140.704 206.514 150.267 214.278 154.012 219.2C157.037 215.249 165.073 208.843 173.024 214.833C179.017 219.348 177.389 226.737 174.725 232.302Z" stroke="#5053A4" stroke-width="3"/>
</svg>
