<svg width="30" height="27" viewBox="0 0 30 27" fill="none" xmlns="http://www.w3.org/2000/svg">
<path d="M4.5109 13.1092C2.4076 10.4637 2.84712 6.6141 5.4926 4.5108C8.13808 2.4075 11.9877 2.84702 14.091 5.4925L19.8644 12.7541C21.9677 15.3996 21.5282 19.2492 18.8827 21.3525C16.2372 23.4558 12.3876 23.0163 10.2843 20.3708L4.5109 13.1092Z" stroke="white"/>
<path d="M15.7156 5.8777C17.5656 3.04932 21.3582 2.25623 24.1866 4.10627C27.015 5.95632 27.8081 9.74894 25.9581 12.5773L20.8799 20.341C19.0298 23.1693 15.2372 23.9624 12.4088 22.1124C9.58043 20.2623 8.78734 16.4697 10.6374 13.6413L15.7156 5.8777Z" fill="#5053A4" stroke="#5053A4"/>
</svg>
