<svg width="30" height="25" viewBox="0 0 30 25" fill="none" xmlns="http://www.w3.org/2000/svg">
<path d="M29.9625 24.0865L27.9358 18.6568V10.2069H27.9357C27.9332 10.0191 27.8418 9.84357 27.6893 9.73393L14.3248 0.119057C14.324 0.118583 14.3059 0.106024 14.302 0.103576C14.102 -0.0331536 13.8298 -0.0384458 13.6219 0.111237L0.246419 9.73386C0.0938922 9.84357 0.00250245 10.019 5.38067e-05 10.2068C-0.00247383 10.3947 0.0841766 10.5726 0.233781 10.6862L7.02055 15.8484V17.8656C7.02055 19.9524 10.5969 21.0784 13.9619 21.0784C17.3327 21.0784 20.9151 19.9524 20.9151 17.8656V15.8484L26.7509 11.4096V18.6567L24.7241 24.0865C24.6097 24.393 24.7653 24.7342 25.0719 24.8486C25.1401 24.8741 25.2101 24.8862 25.279 24.8862C25.5191 24.8862 25.7451 24.7391 25.834 24.5008L26.7509 22.0446V24.2937C26.7509 24.6208 27.016 24.8861 27.3433 24.8861C27.6705 24.8861 27.9357 24.6208 27.9357 24.2937V22.0449L28.8524 24.5008C28.9413 24.7391 29.1672 24.8862 29.4074 24.8862C29.4762 24.8862 29.5463 24.8741 29.6145 24.8486C29.9211 24.7343 30.0768 24.393 29.9625 24.0865ZM19.7303 17.8656C19.7303 18.6925 17.4831 19.8936 13.9619 19.8936C10.3954 19.8936 8.20538 18.7125 8.20538 17.8656V16.8767C8.83034 15.4018 11.2805 14.3005 13.9738 14.3005C16.6628 14.3005 19.108 15.4018 19.7303 16.8764V17.8656ZM19.7303 14.976C18.4228 13.8428 16.2893 13.1157 13.9738 13.1157C11.6535 13.1157 9.51517 13.8438 8.20538 14.9783V13.5972C8.20538 11.7887 10.847 10.2609 13.9738 10.2609C17.0941 10.2609 19.7303 11.7887 19.7303 13.5972V14.976ZM20.9151 14.3598V13.5973C20.9151 12.3351 20.155 11.1696 18.7748 10.3154C17.4832 9.51624 15.7782 9.07612 13.9738 9.07612C12.1687 9.07612 10.4617 9.51616 9.16723 10.3152C7.78287 11.1696 7.02047 12.3353 7.02047 13.5973V14.3599L1.58836 10.2281L13.9679 1.32174L26.3474 10.228L20.9151 14.3598Z" fill="#42B76E"/>
</svg>

