<svg width="30" height="23" viewBox="0 0 30 23" fill="none" xmlns="http://www.w3.org/2000/svg">
<path d="M8.15538 9.63966C6.45621 9.63966 5.07385 8.2573 5.07385 6.55813C5.07385 4.85896 6.45629 3.47661 8.15538 3.47661C9.85455 3.47661 11.2369 4.85904 11.2369 6.55813C11.2369 8.2573 9.85455 9.63966 8.15538 9.63966ZM8.15538 4.70704C7.13471 4.70704 6.30436 5.53738 6.30436 6.55805C6.30436 7.57872 7.13471 8.40907 8.15538 8.40907C9.17604 8.40907 10.0064 7.57872 10.0064 6.55805C10.0064 5.53738 9.17604 4.70704 8.15538 4.70704Z" fill="#4DA9EF"/>
<path d="M29.3847 18.2542H28.5805V0.615255C28.5805 0.275388 28.305 0 27.9652 0H2.03469C1.6949 0 1.41943 0.275388 1.41943 0.615255V18.2542H0.615255C0.275388 18.2542 0 18.5297 0 18.8695V20.6252C0 20.965 0.275388 21.2404 0.615255 21.2404H3.67701V21.8964C3.67701 22.2362 3.9524 22.5116 4.29227 22.5116H11.8234C12.1633 22.5116 12.4387 22.2362 12.4387 21.8964V21.2404H29.3847C29.7246 21.2404 30 20.965 30 20.6252V18.8695C30 18.5296 29.7246 18.2542 29.3847 18.2542ZM3.67701 20.0099H1.23051V19.4847H3.67701V20.0099ZM3.67701 11.7414V18.2542H2.64994V1.23051H27.3501V18.2542H12.4387V15.0938L14.8172 17.1947C15.0234 17.3558 15.2021 17.3499 15.2367 17.3487C15.4036 17.3458 15.5622 17.2751 15.6759 17.1529L20.5894 11.873C20.8707 11.5739 21.0155 11.1845 20.9973 10.7767C20.9823 10.443 20.8576 10.1312 20.6442 9.87698L24.2506 6.00694C24.4821 5.75838 24.4684 5.36904 24.2199 5.1373C23.9713 4.90572 23.582 4.91958 23.3502 5.16798L19.7478 9.03383C19.4927 8.84581 19.1828 8.74458 18.8579 8.7518C18.4508 8.75844 18.057 8.93309 17.7788 9.22932L15.0738 12.1281C15.0738 12.1281 13.0039 10.1907 12.9804 10.1743C12.6308 9.8997 12.1958 9.749 11.7502 9.749H5.66921C4.57077 9.74909 3.67701 10.6428 3.67701 11.7414ZM19.6557 10.6196C19.6598 10.6235 19.664 10.6273 19.6681 10.631C19.7463 10.7007 19.7656 10.7785 19.768 10.8316C19.7713 10.9047 19.7446 10.9752 19.6897 11.0335L19.21 11.5515L18.1851 10.5908L18.6744 10.0733C18.7473 9.99568 18.8334 9.9828 18.8781 9.98214C18.9153 9.98231 18.9881 9.98887 19.0444 10.0451C19.0487 10.0493 19.0531 10.0536 19.0576 10.0577L19.6557 10.6196ZM12.2307 13.2683C12.0494 13.1081 11.791 13.0692 11.5705 13.1686C11.35 13.2681 11.2081 13.4875 11.2081 13.7295V21.2811H4.90752V11.7414C4.90752 11.3213 5.24919 10.9796 5.66921 10.9796H11.7503C11.9764 10.9796 12.1383 11.074 12.2344 11.1532C12.2346 11.1534 12.2349 11.1536 12.2351 11.1538L14.6838 13.4491C14.8032 13.5611 14.9623 13.6217 15.1262 13.615C15.2898 13.6094 15.4445 13.5385 15.5557 13.4185L17.3441 11.489L18.3726 12.4531L15.1834 15.8764L12.2307 13.2683ZM28.7695 20.0099H12.4387V19.4847H28.7695V20.0099Z" fill="#4DA9EF"/>
</svg>

